PathFileType	4	(X/Y/Z)	Kaydara	
DataRate	CameraRate	NumFrames	NumMarkers	Units	OrigDataRate	OrigDataStartFrame	OrigNumFrames	
120.00	120.00	4	72	mm	120.00	101	268	
Frame#	Time	Hips			RightUpLeg			RightLeg			RightFoot			RightFoot_End			LeftUpLeg			LeftLeg			LeftFoot			LeftFoot_End			Spine			Spine1			Spine2			Spine3			Neck			Head			Head_End			RightShoulder			RightArm			RightForeArm			RightHand			RightHandThumb1			RightHandThumb2			RightHandThumb3			RightHandThumb3_End			RightInHandIndex			RightHandIndex1			RightHandIndex2			RightHandIndex3			RightHandIndex3_End			RightInHandMiddle			RightHandMiddle1			RightHandMiddle2			RightHandMiddle3			RightHandMiddle3_End			RightInHandRing			RightHandRing1			RightHandRing2			RightHandRing3			RightHandRing3_End			RightInHandPinky			RightHandPinky1			RightHandPinky2			RightHandPinky3			RightHandPinky3_End			LeftShoulder			LeftArm			LeftForeArm			LeftHand			LeftHandThumb1			LeftHandThumb2			LeftHandThumb3			LeftHandThumb3_End			LeftInHandIndex			LeftHandIndex1			LeftHandIndex2			LeftHandIndex3			LeftHandIndex3_End			LeftInHandMiddle			LeftHandMiddle1			LeftHandMiddle2			LeftHandMiddle3			LeftHandMiddle3_End			LeftInHandRing			LeftHandRing1			LeftHandRing2			LeftHandRing3			LeftHandRing3_End			LeftInHandPinky			LeftHandPinky1			LeftHandPinky2			LeftHandPinky3			LeftHandPinky3_End			
		X1	Y1	Z1	X2	Y2	Z2	X3	Y3	Z3	X4	Y4	Z4	X5	Y5	Z5	X6	Y6	Z6	X7	Y7	Z7	X8	Y8	Z8	X9	Y9	Z9	X10	Y10	Z10	X11	Y11	Z11	X12	Y12	Z12	X13	Y13	Z13	X14	Y14	Z14	X15	Y15	Z15	X16	Y16	Z16	X17	Y17	Z17	X18	Y18	Z18	X19	Y19	Z19	X20	Y20	Z20	X21	Y21	Z21	X22	Y22	Z22	X23	Y23	Z23	X24	Y24	Z24	X25	Y25	Z25	X26	Y26	Z26	X27	Y27	Z27	X28	Y28	Z28	X29	Y29	Z29	X30	Y30	Z30	X31	Y31	Z31	X32	Y32	Z32	X33	Y33	Z33	X34	Y34	Z34	X35	Y35	Z35	X36	Y36	Z36	X37	Y37	Z37	X38	Y38	Z38	X39	Y39	Z39	X40	Y40	Z40	X41	Y41	Z41	X42	Y42	Z42	X43	Y43	Z43	X44	Y44	Z44	X45	Y45	Z45	X46	Y46	Z46	X47	Y47	Z47	X48	Y48	Z48	X49	Y49	Z49	X50	Y50	Z50	X51	Y51	Z51	X52	Y52	Z52	X53	Y53	Z53	X54	Y54	Z54	X55	Y55	Z55	X56	Y56	Z56	X57	Y57	Z57	X58	Y58	Z58	X59	Y59	Z59	X60	Y60	Z60	X61	Y61	Z61	X62	Y62	Z62	X63	Y63	Z63	X64	Y64	Z64	X65	Y65	Z65	X66	Y66	Z66	X67	Y67	Z67	X68	Y68	Z68	X69	Y69	Z69	X70	Y70	Z70	X71	Y71	Z71	X72	Y72	Z72	

101	0.833	8446.805	859.65103	-201.189	8520.40905196025	852.4397861918784	-233.1259577717057	8398.044974491995	457.5947357930018	-277.98534945581264	8448.94203765095	53.45066931729325	-356.2827039558391	8388.649188575255	-30.8523442329306	-203.82502235677185	8381.91105370641	838.8029295877949	-155.50735870487424	8259.594293743163	444.1535609196809	-90.19387439654997	8199.065360599834	68.03491912168953	77.98464319710446	8240.801730242696	21.601132378237008	256.32882009530493	8404.218845479918	982.643448013044	-259.3776648579991	8353.030133761256	1050.5787279857811	-305.2306680426967	8293.527378595008	1115.616760919306	-353.220234231838	8228.60794110146	1169.2809801362657	-399.60848330312723	8158.385093238988	1226.8161063992761	-445.557023906351	8116.684992712626	1299.7269471813872	-402.9822449833989	8093.375620423089	1386.8364303093222	-272.3044909629519	8197.55752757777	1214.0421646044456	-446.9266493455579	8263.849530098734	1218.4724497975822	-510.49409354801963	8345.83384026143	1023.041726038656	-515.0925185759239	8430.118596376056	964.3169534172196	-598.421335435727	8434.805226659662	977.4613421002267	-607.6449209099998	8430.519836025722	984.0927232607786	-623.0797478734312	8428.670578041336	986.2017128758462	-633.4298224574668	8428.099969794199	985.8134118932275	-641.7171193789841	8440.717303705938	969.6794380086607	-606.4503609400896	8455.00488079129	968.5398773858299	-619.8904986777525	8457.39949922029	967.7116844653992	-632.5095083768423	8452.711750965967	969.3098057957508	-641.4293572576673	8444.665477766684	972.0578608094484	-649.5371752968778	8442.948499073591	962.8930685633856	-605.0532923195166	8458.093179941703	958.1108354807573	-617.4057924514589	8460.944813447079	956.3153160728526	-630.9517856786422	8455.403713406937	957.8154526533455	-641.6058369553714	8446.655286483974	960.6142854180108	-650.4250386539267	8444.247149102279	958.1113068335236	-603.6901975566466	8459.201395868016	949.6269476760227	-613.4804099557008	8461.905965576076	947.1581787512681	-625.0392450491213	8456.677461383437	948.1252205461116	-635.1842736446778	8448.506853820047	950.5293907048983	-643.4141600942008	8444.645369446049	952.7612630829334	-601.9904932381115	8458.903044114706	941.6262090047843	-609.815445082533	8461.344687554221	938.2764185377608	-618.6421228902442	8457.664468534314	938.317670258014	-625.8343261188993	8450.503453751342	940.0651696962068	-633.0051794392058	8165.297920686642	1204.0937597496963	-412.0412433526645	8119.581211242701	1146.973464370031	-351.09528265052097	8214.189764926114	1031.472045823696	-493.3197042094372	8373.29285830474	987.2749108318687	-474.33987823360314	8370.16400484813	1002.3232676151384	-479.41502402287205	8377.800790513666	1003.8390849376487	-501.38838315731033	8383.348014491037	1002.6482377261203	-518.6155193252863	8388.168368767936	999.7336890643516	-534.6237270299868	8369.619172028184	996.5062726240958	-485.83270386356696	8369.52549423722	998.5775787187208	-514.6436392269326	8375.221412578969	995.4503389434306	-539.757849618074	8381.745604264132	992.6676061858699	-554.3477161607503	8389.15782914109	989.7987245378753	-565.7332740053225	8370.519015753896	990.1070069156908	-490.3060264781213	8370.912727142622	988.6672334955364	-520.8255248120084	8377.254339433373	984.398000580453	-548.7332420969684	8385.186120660286	980.6295836290486	-566.5768050616515	8393.325891639568	977.2906291252209	-579.1520320171699	8371.100125660041	985.5651855659544	-492.69810892746875	8371.790588329095	980.4261997131447	-522.0293015756064	8377.446994583162	975.8313030654875	-546.8202787088879	8385.166357746752	971.7323169388005	-564.2795510435253	8392.852272112048	968.3729549717905	-576.220829392741	8372.221784711417	980.0174771631293	-494.8812598530058	8373.35521046616	971.992324262403	-523.0277638258102	8378.083365937986	966.9718205855456	-543.4795955844146	8383.810027252961	963.3332779096401	-556.5047671879936	8390.673816989558	959.9840817338456	-567.2498727462552
102	0.842	8446.805	859.65103	-201.189	8520.027282188847	852.3337454219874	-233.1569019781783	8398.138941932164	457.3854347443521	-277.78015791075836	8449.466713634478	53.68828550171612	-356.6737435025879	8389.709410294427	-30.792753346513752	-204.40094480456034	8382.270238661169	838.8993435025353	-155.4826506584119	8259.921092622351	444.31196462096733	-89.91514634207164	8199.247954573808	68.19160705472746	78.18749556692948	8241.22489237365	21.693218454705654	256.4352406597698	8404.340698301596	982.6922501196248	-259.3481155195277	8353.22401615839	1050.7161958799015	-305.1413681394079	8293.809698576642	1115.8757483895804	-353.0637768600505	8228.978762429962	1169.6847512449551	-399.3853151447681	8158.84861672453	1227.3694578011255	-445.2583194390628	8117.141108990564	1300.2929807085554	-402.7358915605944	8093.8426557512985	1387.4571417653538	-272.1189783250414	8197.894754280049	1214.5143763965332	-446.5880468565941	8263.851674229212	1218.9417337654793	-509.8312040086791	8346.077356095806	1024.071726646937	-513.971425763745	8430.148926554168	966.2262164427389	-597.2100878779063	8434.88945394884	979.5559259418201	-606.3226286247819	8430.719511226645	986.3307955826442	-621.7272403302563	8428.943626027987	988.5305760032322	-632.0696906465045	8428.428175658915	988.2101490080696	-640.3621100137523	8440.773444288356	971.7626731062085	-605.1604836418524	8455.108404555205	970.8360841289755	-618.5540218525548	8457.577919561058	970.1326311940069	-631.1699574347342	8452.961791713946	971.7863371727839	-640.0966939851583	8444.99170056531	974.5655826993238	-648.2161480565526	8442.985875792912	964.9429309868972	-603.8029260778857	8458.16661145135	960.3503794481456	-616.1313376141363	8461.097394836823	958.6858526129284	-629.6793775830608	8455.641465521088	960.2505913001039	-640.344330476695	8446.97579440395	963.0823568399015	-649.1775241402156	8444.26959782682	960.1323777214251	-602.4687153915777	8459.241846091316	951.7936644062346	-612.2617705074599	8462.012717285781	949.4335309016487	-623.8279505289759	8456.864940735995	950.4599454124412	-633.9864478386883	8448.771468616493	952.893686909178	-642.2308897228743	8444.652880960615	954.7412395587135	-600.8053817172304	8458.916322232122	943.7152466048337	-608.6546112524275	8461.40679212852	940.4431703938126	-617.4958355896085	8457.783392903737	940.5232412169003	-624.7020545092579	8450.689520158314	942.2943533968287	-631.8882138610174	8165.828942495005	1204.620928368705	-411.8427439290701	8120.383258656199	1147.7342134694452	-351.19085021892215	8214.710002398253	1032.5335325798324	-492.7204924101029	8373.11071089746	988.857032029842	-473.6089188830108	8370.102203752693	1004.0457749491758	-478.65550000079327	8377.811962931231	1005.6104776636346	-500.50929552276006	8383.399932151744	1004.4481679481743	-517.6497395463986	8388.245636378279	1001.5526993075597	-533.5827431689927	8369.5357386493	998.2318889447639	-485.0658458502634	8369.54067558474	1000.4589038627093	-513.7763906609274	8375.286861692297	997.3867814178275	-538.7802749237187	8381.832781469477	994.6014940774627	-553.2899232706156	8389.256566885128	991.7056610920827	-564.601240763202	8370.40387910661	991.8096968770737	-489.5314156161999	8370.876633264068	990.5094114838695	-519.9488140520623	8377.268571701708	986.2967259002678	-547.7353957082538	8385.224395157156	982.5235009087584	-565.4818194634718	8393.375759610488	979.1542176105773	-577.9756395457332	8370.960214342327	987.2482402144847	-491.92095097083484	8371.700419062427	982.2187856133082	-521.159508770991	8377.395937634508	977.6692739403136	-545.8442960695206	8385.135967757009	973.5635778585299	-563.2095472337803	8392.83158697694	970.1747171779548	-575.0741296780857	8372.049357957192	981.6691707902734	-494.1011718593998	8373.20886340185	973.7269927983157	-522.1621093759097	8377.960706755439	968.736262715521	-542.5283615999818	8383.698750871767	965.0896481195617	-555.4846893480596	8390.569012883567	961.712492098876	-566.161702625663
103	0.85	8446.805	859.65103	-201.189	8519.643890689587	852.2269804854046	-233.1884814081253	8398.232870756641	457.1752882061743	-277.5761181261638	8449.992009239966	53.926626436554585	-357.06902379976975	8390.771868227443	-30.73313888125313	-204.98193970038938	8382.63101638826	838.996492293983	-155.45727423212426	8260.249480043944	444.4712070388692	-89.63534450799168	8199.431663302283	68.34841947753057	78.38949305175396	8241.64935341284	21.784525186099213	256.5404257828084	8404.462775422748	982.7410502492214	-259.3186702641862	8353.41817349679	1050.8537250974478	-305.0520612773812	8294.092333875236	1116.1348729654715	-352.90714236498303	8229.349927304324	1170.0887742564669	-399.161704031918	8159.312511458182	1227.9231735876112	-444.9588559988399	8117.597285552144	1300.859353149111	-402.48913480373835	8094.310080949718	1388.0786214808797	-271.93340367950833	8198.231814001125	1214.986434916024	-446.2487918175494	8263.851454045585	1219.408932667714	-509.1671212491158	8346.315611533759	1025.1007587307877	-512.8454707169741	8430.169661510707	968.132252386574	-595.989570435478	8434.963808042292	981.6467730339908	-604.9910979721209	8430.909110386661	988.5647100217125	-620.3649020920545	8429.206418227208	990.8550071649054	-630.6992370615337	8428.745942966254	990.6022420865253	-638.9963022584391	8440.819521608108	973.8421820062804	-603.8611254748272	8455.20112223478	973.1279228523534	-617.2072930041351	8457.745158994543	972.5488246521207	-629.8194239116573	8453.200585520603	974.257943636163	-638.7526113573433	8445.306734408317	977.0682833850099	-646.8833516887051	8443.013117185243	966.9891446760213	-602.5428828610383	8458.229144087873	962.5856905493001	-614.8463476219829	8461.238661425316	961.0517482812479	-628.3956135322022	8455.867819845253	962.6808879347772	-639.0709297577728	8447.284966366453	965.5454837785187	-647.9177271627398	8444.281877424188	962.1498703552726	-601.2374386825496	8459.27140816644	953.9563387352005	-611.0324691656044	8462.108212471734	951.7044986123801	-622.6052559018882	8457.041080408708	952.7900990356258	-632.7766905988445	8449.024800399184	955.2533189394455	-641.0353171519232	8444.650220425143	956.7177425356392	-599.6103522339174	8458.918760593937	945.8004472676369	-607.4829919641736	8461.457755986601	942.6058346371534	-616.3381398983223	8457.891113010266	942.7245995382723	-623.5579715747886	8450.864430834801	944.5192486015658	-630.7590996673159	8166.360890968864	1205.1489035884094	-411.6436685112252	8121.188240073734	1148.497779401305	-351.2855167462545	8215.230852971072	1033.5956793832117	-492.11563738352277	8372.924075381425	990.4367053085729	-472.87245861104077	8370.035458757546	1005.7653832520912	-477.8902620781996	8377.817755032782	1007.3786623545097	-499.62405798303166	8383.446253357075	1006.2446718011327	-516.6774640356175	8388.317202441616	1003.3680984768902	-532.5349391802565	8369.44765544002	999.9545296371177	-484.29310696141533	8369.55119363667	1002.3365389098748	-512.9025075062369	8375.347524812307	999.3191644696144	-537.7955207457524	8381.914963734222	996.5312211279228	-552.2246938020827	8389.350047255522	993.6084393300956	-563.4616132318145	8370.284326461178	993.5094336058598	-488.75083438510666	8370.836236766087	992.3479514458677	-519.0653493724989	8377.278398218834	988.1914156180982	-546.730191421972	8385.25802657398	984.4132628359828	-564.3791612870533	8393.420704526605	981.0136547737309	-576.7913997416704	8370.816054294433	988.9283742239685	-491.13777843254104	8371.606252914056	984.0078611810546	-520.2829601472183	8377.34082515185	979.5033946020163	-544.8610228221953	8385.101309899557	975.3908765869014	-562.131944842416	8392.806378588164	971.9725226555131	-573.9196649651813	8371.872862084034	983.3180135534541	-493.31504188642293	8373.058794715587	975.4583074895495	-521.2897152197888	8377.834326607874	970.4970917905173	-541.5699498627324	8383.5836216855	966.842329863237	-554.4572043738328	8390.460143000253	963.4372224429458	-565.0659752223644
104	0.858	8446.805	859.65103	-201.189	8519.258911535582	852.1195002349306	-233.22069450018438	8398.326751713597	456.964314954608	-277.3732532845255	8450.51787371396	54.16567030384162	-357.46851645594137	8391.836462361105	-30.673506704307254	-205.56796233844034	8382.993354975373	839.0943680775212	-155.4312303046294	8260.579427427669	444.6312743398059	-89.35449404387424	8199.616471569234	68.50534093055381	78.5906134468855	8242.0750746849	21.87504149000805	256.64436197890444	8404.585065332465	982.789843606221	-259.28933220669245	8353.612587272843	1050.9913022337719	-304.9627562316557	8294.375257373746	1116.3941094471934	-352.75034578684756	8229.721399926106	1170.4930099116305	-398.93767102217214	8159.776732548292	1228.477199966966	-444.65866142220375	8118.053477489515	1301.4260094234407	-402.2419982294054	8094.77785091287	1388.700809960457	-271.7477852931272	8198.568673112357	1215.458293190279	-445.9089163086557	8263.848864080337	1219.8739952742142	-508.5019085272826	8346.548569928402	1026.1287175691355	-511.7147539359784	8430.180775169587	970.0348623498406	-594.7598823938303	8435.028257208498	983.73366468136	-603.6504395725175	8431.088589931314	990.7942323761056	-618.9928456273592	8429.458903367777	993.1747623027937	-629.3185739179423	8429.053214499601	992.9894396601503	-637.6198067998641	8440.85550611751	975.9177471129844	-602.5523932050497	8455.282997862592	975.415152886495	-615.8504219053393	8457.901173193111	974.9600105861462	-628.4580163266268	8453.42808077364	976.7243648670285	-637.3972162981995	8445.610520246064	979.565699132801	-645.5388912469971	8443.03019523901	969.0314955190335	-601.273264982432	8458.280744410076	964.8165340511056	-613.5509253137616	8461.368570867357	963.4127540593719	-627.1005943952091	8456.082725350469	965.1060864794204	-637.7857334547798	8447.58274325572	968.0034065448923	-646.6457441908999	8444.283961173742	964.1635736501676	-599.9964665450545	8459.29005174979	956.1147436557749	-609.7926028120429	8462.192413261146	953.9708430074784	-621.3712557172064	8457.205834275583	955.115436039469	-631.5550940128644	8449.26679549677	957.6080381707758	-639.827532257971	8444.637362463183	958.690565271292	-598.4054999376547	8458.910331467781	947.8815922376709	-606.3006779568029	8461.497545743769	944.764183986199	-615.1691237363806	8457.987589631544	944.9215136723902	-622.4021629798295	8451.028139979377	946.7396211551202	-629.617920298959	8166.893715806193	1205.6776352438699	-411.44403536812314	8121.996083008018	1149.2640934412468	-351.379270369435	8215.752266511798	1034.658382190065	-491.50518527366347	8372.732959543251	992.0137666445672	-472.13055745819685	8369.96376440896	1007.4819135024159	-477.11937297050315	8377.818153066197	1009.1434543987775	-498.7327442459648	8383.486959799235	1008.0375612948359	-515.6987743560677	8388.383045898798	1005.1796962054441	-531.4804033467427	8369.354919808004	1001.6740150932526	-483.5145501434773	8369.557035814847	1004.2102869061765	-512.0220610629558	8375.40338406289	1001.2472847022904	-536.8036681069922	8381.992130573242	998.4565839522136	-551.1521161572075	8389.438248069526	995.5068585857817	-562.3144868212564	8370.160358978548	995.2060397640527	-487.964346170756	8370.791531099447	994.1826603508238	-518.1752025437102	8377.283807184102	990.0818700360327	-545.7177116537118	8385.287000216606	986.2986699007542	-563.268921867935	8393.460709959823	982.8687441643353	-575.5994116169323	8370.667649573072	990.6054122455005	-490.3486547590839	8371.5080895131	985.7932385628703	-519.3997266100905	8377.281652740818	981.3334717821106	-543.8705391748624	8385.062377283044	977.2140202471232	-561.0468326940008	8392.776638563364	973.7661815042006	-572.7575313023397	8371.692304860217	984.9638333497865	-492.52293349768945	8372.905010363529	977.186086567543	-520.4106517143614	8377.70422911276	972.2541223789182	-540.6044381831998	8383.464641917546	968.5911383203301	-553.4223963631676	8390.34720848808	965.158090769812	-563.9627810346124
